<?xml version="1.0" encoding="UTF-8" standalone="no"?>
<svg
   xmlns:dc="http://purl.org/dc/elements/1.1/"
   xmlns:cc="http://creativecommons.org/ns#"
   xmlns:rdf="http://www.w3.org/1999/02/22-rdf-syntax-ns#"
   xmlns:svg="http://www.w3.org/2000/svg"
   xmlns="http://www.w3.org/2000/svg"
   xmlns:sodipodi="http://sodipodi.sourceforge.net/DTD/sodipodi-0.dtd"
   xmlns:inkscape="http://www.inkscape.org/namespaces/inkscape"
   height="16"
   viewBox="0 0 16 16"
   width="16"
   version="1.1"
   id="svg6"
   sodipodi:docname="ic_disc_full_black_24px.svg"
   style="fill:#000000"
   inkscape:version="0.92.2 (5c3e80d, 2017-08-06)">
  <metadata
     id="metadata12">
    <rdf:RDF>
      <cc:Work
         rdf:about="">
        <dc:format>image/svg+xml</dc:format>
        <dc:type
           rdf:resource="http://purl.org/dc/dcmitype/StillImage" />
        <dc:title></dc:title>
      </cc:Work>
    </rdf:RDF>
  </metadata>
  <defs
     id="defs10" />
  <sodipodi:namedview
     pagecolor="#ffffff"
     bordercolor="#666666"
     borderopacity="1"
     objecttolerance="10"
     gridtolerance="10"
     guidetolerance="10"
     inkscape:pageopacity="0"
     inkscape:pageshadow="2"
     inkscape:window-width="1920"
     inkscape:window-height="986"
     id="namedview8"
     showgrid="false"
     viewbox-width="24"
     inkscape:zoom="9.8333333"
     inkscape:cx="10"
     inkscape:cy="8"
     inkscape:window-x="-11"
     inkscape:window-y="-11"
     inkscape:window-maximized="1"
     inkscape:current-layer="svg6" />
  <path
     id="path2"
     style="fill:none"
     d="m -2,-4 v 24 h 24 v -6.115234 c -0.0435,0.01235 -0.03059,0.01714 -0.115234,0.04297 -0.100373,0.03062 -0.200659,0.06622 -0.300782,0.09766 -0.05205,0.01634 -0.114281,0.01202 -0.15625,0.04688 -0.105117,0.08731 -0.164734,0.221338 -0.271484,0.30664 -0.102131,0.08161 -0.23038,0.12397 -0.345703,0.185547 -0.172826,0.01827 -0.345125,0.07618 -0.517578,0.05469 -0.503229,-0.06273 -0.909712,-0.374768 -1.242188,-0.744141 0.0014,0.05275 -0.005,0.105442 -0.002,0.158203 -0.04594,0.129163 -0.09078,0.259509 -0.136719,0.388672 -0.003,0.0041 -0.0067,0.0077 -0.0098,0.01172 0.01073,-0.02515 0.01488,-0.05346 0.02148,-0.08008 0.242313,-0.977132 -1.14293,0.971546 -1.017578,-0.02734 0.0078,-0.06234 0.0059,-0.125235 0.02344,-0.185547 0.0048,-0.01659 0.05953,-0.138821 0.103515,-0.226563 -0.0023,-0.08981 0.0073,-0.179681 0.0078,-0.269531 -0.137267,0.100589 -0.29631,0.212318 -0.363282,0.222657 -0.635158,0.09804 -0.851903,-0.115884 -0.890625,-0.666016 0.02004,-0.19542 0.0065,-0.159246 0.05664,-0.330078 0.01317,-0.0449 0.0255,-0.08941 0.04297,-0.132813 0.0094,-0.02344 0.03384,-0.04136 0.03711,-0.06641 0.0077,-0.05849 -0.02504,-0.240903 -0.0332,-0.294922 -0.03902,-0.5353 0.109359,-1.034421 0.257813,-1.546875 0.179515,-0.619677 0.290192,-0.955389 0.464843,-1.503906 -0.02939,-0.208979 -0.06622,-0.416961 -0.08789,-0.626953 0,-0.51249 -1.1e-5,-1.02462 0,-1.53711 1.9e-5,-0.298986 2e-4,-0.597498 0,-0.896484 -9e-6,-0.217369 9.56e-4,-0.4349754 0,-0.6523438 -0.0012,-0.2210541 -0.0055,-0.4431756 0.0059,-0.6640624 0.0048,-0.2928505 -0.09769,-0.585999 0.06445,-0.8613282 0.01297,-0.021386 0.02541,-0.039535 0.03711,-0.056641 0.0086,-0.1452559 0.0358,-0.4294292 -0.01172,-0.3398438 -0.04495,-0.3263252 -0.02018,-0.4370855 0.140625,-0.6816406 -0.01978,-0.089896 -0.03448,-0.194757 -0.0059,-0.28125 0.10343,-0.3121647 0.646104,-0.5941853 0.91211,-0.7441406 0.08817,-0.049704 0.169374,-0.077111 0.25,-0.1015625 0.0047,-0.040106 0.0161,-0.093645 0.01953,-0.1308594 0.0063,-0.067908 0.02086,-0.3009216 -0.02148,-0.4492187 -0.0012,-0.00264 -0.0029,-0.00507 -0.0039,-0.00781 -0.0064,-0.017162 -0.01322,-0.066268 -0.0059,-0.054688 -0.03093,-0.073074 -0.06532,-0.1454401 -0.08203,-0.2226563 -0.01227,-0.0567 -0.0085,-0.119099 0.01563,-0.171875 0.04776,-0.104639 0.09708,-0.1917027 0.15039,-0.265625 -0.02214,-0.1644867 -0.04628,-0.3080177 -0.08008,-0.5976562 -0.01819,-0.1559333 -0.04428,-0.3106514 -0.06055,-0.4667969 -0.009,-0.086216 -0.009,-0.1732085 -0.01367,-0.2597656 -0.01333,-0.1814273 -0.03381,-0.3275417 -0.0078,-0.5117188 0.03374,-0.2395001 0.183776,-0.5464185 0.373047,-0.6933594 0.09953,-0.077272 0.231763,-0.098974 0.347656,-0.1484374 0.0997,0.00759 0.203832,-0.00775 0.298828,0.023437 0.184965,0.060726 0.4781,0.3374438 0.591797,0.4863282 0.07627,0.099873 0.127368,0.2160956 0.191406,0.3242187 0.05811,0.1742265 0.107096,0.3531022 0.175782,0.5234375 0.04745,0.117673 0.108811,0.2288318 0.158203,0.3457032 0.06774,0.1602882 0.09662,0.3322027 0.183594,0.484375 0.06033,0.135061 0.137503,0.2631109 0.18164,0.4042968 0.136345,0.436135 0.201456,0.9756853 0.222656,1.4238282 0.01129,0.2387398 -0.01329,0.4778159 -0.0098,0.7167968 0.01,0.6791164 0.01902,0.6132021 0.107422,1.2382813 0.0347,0.1833971 0.07603,0.3664664 0.105468,0.5507812 0.07983,0.4997691 -0.07904,-0.1686023 0.07617,0.3945313 0.01091,0.039586 0.0099,0.083942 0.02734,0.1210937 0.03831,0.081065 0.09074,0.1533937 0.140625,0.2285157 V -4 Z m 20.90625,5.2402344 c 0.0077,0.015157 0.0044,0.04376 0.0098,0.0625 0.0096,0.020672 0.02321,0.039071 0.03516,0.058594 -0.01491,-0.040337 -0.02809,-0.081319 -0.04492,-0.1210937 z m 0.982422,-1.6054688 c 0.01074,0.070011 0.02095,0.140621 0.0293,0.2109375 0.05214,0.4391454 0.03669,0.5031459 0.121093,0.90625 0.09668,0.182907 0.153778,0.3967317 0.212891,0.5546875 0.225396,0.8947259 0.273598,1.8156676 0.287109,2.7363282 0.0075,0.014367 0.0039,-8.257e-4 0.01758,0.025391 0.02858,0.091939 0.06013,0.1821137 0.08398,0.2753906 0.0032,0.012406 -0.0055,0.024413 -0.0039,0.037109 0.0072,0.055215 0.01794,0.1099883 0.03125,0.1640625 0.02108,0.085669 0.05237,0.1694778 0.07031,0.2558593 0.0054,0.026084 -0.01063,0.055649 0,0.080078 0.02784,0.064017 0.0678,0.1206665 0.105469,0.1796875 -0.01461,-0.053236 -0.04075,-0.1208066 -0.04883,-0.1601563 -0.02437,-0.1187694 -0.03043,-0.2398506 -0.05078,-0.359375 -0.02708,-0.159062 -0.06094,-0.3162376 -0.0918,-0.4746094 -0.249367,-1.1030335 0.04223,-2.2559793 -0.3125,-3.3417968 -0.0231,-0.070702 -0.07164,-0.1301045 -0.107422,-0.1953125 -0.121256,-0.2959577 -0.229998,-0.5960336 -0.34375,-0.8945311 z m -2.111328,3.4511719 c 0.0022,-0.00611 -0.01493,0.032037 -0.0098,0.019531 0.05995,0.1187462 0.03728,0.078253 0.0098,-0.019531 z m 3.123047,2.1699219 c 0.04651,0.1998946 0.07718,0.3723948 0.109375,0.6035156 0.02599,0.186612 0.02782,0.373643 0.04492,0.560547 0.05036,0.03887 0.105883,0.07039 0.166015,0.0957 -0.0308,-0.244307 -0.06825,-0.46882 -0.07813,-0.6113281 -0.0159,-0.2294712 0.01547,-0.3823953 -0.01172,-0.2382813 -0.0921,-0.07223 -0.168701,-0.2385029 -0.230468,-0.4101562 z m 0.205078,2.3183596 c -0.0042,0.36347 -0.01093,0.727648 -0.05273,1.091797 -0.1579,0.995156 -0.206173,1.572244 -0.513672,2.521484 -0.09909,0.305873 -0.20459,0.615574 -0.371093,0.890625 -0.169744,0.280405 -0.308591,0.673845 -0.615235,0.771484 0.02987,0.074 0.05763,0.155867 0.06836,0.169922 0.138891,0.181929 0.492169,0.492836 0.699218,0.591797 0.215842,0.103161 0.209879,0.06854 0.275391,-0.04102 0.02646,-0.02656 -0.0093,-0.08591 0.01953,-0.109374 0.142453,-0.115951 0.290695,-0.226746 0.453125,-0.3125 0.331758,-0.175154 0.509312,-0.165783 0.839844,-0.285157 0.03159,-0.01141 0.0613,-0.02819 0.0918,-0.04297 V 9.019526 C 21.907207,8.792787 21.812873,8.566475 21.718757,8.343745 21.633587,8.132227 21.550622,7.933675 21.476569,7.732417 21.35908,7.682847 21.229617,7.629868 21.105476,7.574214 Z m -3.617188,4.125 c -0.0067,0.0077 -0.02055,0.01331 -0.01953,0.02344 9.33e-4,0.0092 0.0029,0.007 0.0039,0.01563 0.0041,-0.01423 0.01305,-0.0233 0.01563,-0.03906 z"
     inkscape:connector-curvature="0" />
  <path
     id="path4"
     d="M 8,0 C 3.58,0 0,3.58 0,8 c 0,4.42 3.58,8 8,8 4.42,0 8,-3.58 8,-8 C 16,3.58 12.42,0 8,0 Z m 0,6 c 1.1,0 2,0.9 2,2 0,1.1 -0.9,2 -2,2 C 6.9,10 6,9.1 6,8 6,6.9 6.9,6 8,6 Z"
     inkscape:connector-curvature="0" />
</svg>
